<?xml version="1.0" encoding="utf-8"?>
<svg version="1.1" xmlns:xlink="http://www.w3.org/1999/xlink" width="29px" height="29px" xmlns="http://www.w3.org/2000/svg">
  <g transform="matrix(1 0 0 1 -924 -205 )">
    <path d="M 23.8079427083333 16.5579427083333  C 24.0470920138889 16.3187934027778  24.1666666666667 16.0355902777778  24.1666666666667 15.7083333333333  L 24.1666666666667 13.2916666666667  C 24.1666666666667 12.9644097222222  24.0470920138889 12.6812065972222  23.8079427083333 12.4420572916667  C 23.5687934027778 12.2029079861111  23.2855902777778 12.0833333333333  22.9583333333333 12.0833333333333  L 13.48046875 12.0833333333333  L 17.048828125 8.51497395833333  C 17.2879774305556 8.27582465277778  17.4075520833333 7.99262152777778  17.4075520833333 7.66536458333333  C 17.4075520833333 7.33810763888888  17.2879774305556 7.05490451388888  17.048828125 6.81575520833333  L 15.3307291666667 5.09765625  C 15.1041666666667 4.87109375  14.8209635416667 4.7578125  14.4811197916667 4.7578125  C 14.1412760416667 4.7578125  13.8580729166667 4.87109375  13.6315104166667 5.09765625  L 6.796875 11.9322916666667  L 5.07877604166667 13.650390625  C 4.85221354166667 13.876953125  4.73893229166667 14.16015625  4.73893229166667 14.5  C 4.73893229166667 14.83984375  4.85221354166667 15.123046875  5.07877604166667 15.349609375  L 6.796875 17.0677083333333  L 13.6315104166667 23.90234375  C 13.8580729166667 24.12890625  14.1412760416667 24.2421875  14.4811197916667 24.2421875  C 14.8209635416667 24.2421875  15.1041666666667 24.12890625  15.3307291666667 23.90234375  L 17.048828125 22.1842447916667  C 17.275390625 21.9576822916667  17.388671875 21.6744791666667  17.388671875 21.3346354166667  C 17.388671875 20.9947916666667  17.275390625 20.7115885416667  17.048828125 20.4850260416667  L 13.48046875 16.9166666666667  L 22.9583333333333 16.9166666666667  C 23.2855902777778 16.9166666666667  23.5687934027778 16.7970920138889  23.8079427083333 16.5579427083333  Z M 27.0553385416667 7.2216796875  C 28.3517795138889 9.44325086805555  29 11.8693576388889  29 14.5  C 29 17.1306423611111  28.3517795138889 19.5567491319444  27.0553385416667 21.7783203125  C 25.7588975694444 23.9998914930556  23.9998914930556 25.7588975694444  21.7783203125 27.0553385416667  C 19.5567491319444 28.3517795138889  17.1306423611111 29  14.5 29  C 11.8693576388889 29  9.44325086805556 28.3517795138889  7.2216796875 27.0553385416667  C 5.00010850694444 25.7588975694444  3.24110243055556 23.9998914930556  1.94466145833333 21.7783203125  C 0.648220486111111 19.5567491319444  0 17.1306423611111  0 14.5  C 0 11.8693576388889  0.648220486111111 9.44325086805555  1.94466145833333 7.2216796875  C 3.24110243055556 5.00010850694444  5.00010850694444 3.24110243055555  7.2216796875 1.94466145833333  C 9.44325086805556 0.648220486111109  11.8693576388889 0  14.5 0  C 17.1306423611111 0  19.5567491319444 0.648220486111109  21.7783203125 1.94466145833333  C 23.9998914930556 3.24110243055555  25.7588975694444 5.00010850694444  27.0553385416667 7.2216796875  Z " fill-rule="nonzero" fill="#1763bb" stroke="none" transform="matrix(1 0 0 1 924 205 )" />
  </g>
</svg>