<?xml version="1.0" encoding="utf-8"?>
<svg version="1.1" xmlns:xlink="http://www.w3.org/1999/xlink" width="118px" height="85px" xmlns="http://www.w3.org/2000/svg">
  <g transform="matrix(1 0 0 1 -100 -301 )">
    <path d="M 51.19287109375 54.4254557291667  C 51.48095703125 56.1409505208333  51.625 57.9947916666667  51.625 59.9869791666667  C 51.625 62.0160590277778  51.02001953125 63.7407769097222  49.81005859375 65.1611328125  C 48.60009765625 66.5814887152778  47.1500651041667 67.2916666666667  45.4599609375 67  L 20.9150390625 67  C 19.2249348958333 67.2916666666667  17.77490234375 66.5814887152778  16.56494140625 65.1611328125  C 15.35498046875 63.7407769097222  14.75 62.0160590277778  14.75 59.9869791666667  C 14.75 57.9947916666667  14.89404296875 56.1409505208333  15.18212890625 54.4254557291667  C 15.47021484375 52.7099609375  15.9407552083333 51.0498046875  16.59375 49.4449869791667  C 17.2467447916667 47.8401692708333  18.2262369791667 46.5766059027778  19.5322265625 45.654296875  C 20.8382161458333 44.7319878472222  22.3938802083333 44.2708333333333  24.19921875 44.2708333333333  C 26.6575520833333 46.6319444444444  29.6536458333333 47.8125  33.1875 47.8125  C 36.7213541666667 47.8125  39.7174479166667 46.6319444444444  42.17578125 44.2708333333333  C 43.9811197916667 44.2708333333333  45.5367838541667 44.7319878472222  46.8427734375 45.654296875  C 48.1487630208333 46.5766059027778  49.1282552083333 47.8401692708333  49.78125 49.4449869791667  C 50.4342447916667 51.0498046875  50.90478515625 52.7099609375  51.19287109375 54.4254557291667  Z M 41.0234375 27.890625  C 43.1744791666667 29.9565972222222  44.25 32.4652777777778  44.25 35.4166666666667  C 44.25 38.3680555555556  43.1744791666667 40.8767361111111  41.0234375 42.9427083333333  C 38.8723958333333 45.0086805555556  36.2604166666667 46.0416666666667  33.1875 46.0416666666667  C 30.1145833333333 46.0416666666667  27.5026041666667 45.0086805555556  25.3515625 42.9427083333333  C 23.2005208333333 40.8767361111111  22.125 38.3680555555556  22.125 35.4166666666667  C 22.125 32.4652777777778  23.2005208333333 29.9565972222222  25.3515625 27.890625  C 27.5026041666667 25.8246527777778  30.1145833333333 24.7916666666667  33.1875 24.7916666666667  C 36.2604166666667 24.7916666666667  38.8723958333333 25.8246527777778  41.0234375 27.890625  Z M 102.7314453125 57.1647135416667  C 103.0771484375 57.4967447916667  103.25 57.9210069444444  103.25 58.4375  L 103.25 61.9791666666667  C 103.25 62.4956597222222  103.0771484375 62.919921875  102.7314453125 63.251953125  C 102.3857421875 63.583984375  101.944010416667 63.75  101.40625 63  L 60.84375 63  C 60.3059895833333 63.75  59.8642578125 63.583984375  59.5185546875 63.251953125  C 59.1728515625 62.919921875  59 62.4956597222222  59 61.9791666666667  L 59 58.4375  C 59 57.9210069444444  59.1728515625 57.4967447916667  59.5185546875 57.1647135416667  C 59.8642578125 56.8326822916667  60.3059895833333 56.6666666666667  60.84375 56  L 101.40625 56  C 101.944010416667 56.6666666666667  102.3857421875 56.8326822916667  102.7314453125 57.1647135416667  Z M 80.6064453125 42.998046875  C 80.9521484375 43.330078125  81.125 43.7543402777778  81.125 44.2708333333333  L 81.125 47.8125  C 81.125 48.3289930555556  80.9521484375 48.7532552083333  80.6064453125 49.0852864583333  C 80.2607421875 49.4173177083333  79.8190104166667 49.5833333333333  79.28125 49  L 60.84375 49  C 60.3059895833333 49.5833333333333  59.8642578125 49.4173177083333  59.5185546875 49.0852864583333  C 59.1728515625 48.7532552083333  59 48.3289930555556  59 47.8125  L 59 44.2708333333333  C 59 43.7543402777778  59.1728515625 43.330078125  59.5185546875 42.998046875  C 59.8642578125 42.666015625  60.3059895833333 42.5  60.84375 42  L 79.28125 42  C 79.8190104166667 42.5  80.2607421875 42.666015625  80.6064453125 42.998046875  Z M 102.7314453125 42.998046875  C 103.0771484375 43.330078125  103.25 43.7543402777778  103.25 44.2708333333333  L 103.25 47.8125  C 103.25 48.3289930555556  103.0771484375 48.7532552083333  102.7314453125 49.0852864583333  C 102.3857421875 49.4173177083333  101.944010416667 49.5833333333333  101.40625 49  L 90.34375 49  C 89.8059895833334 49.5833333333333  89.3642578125 49.4173177083333  89.0185546875 49.0852864583333  C 88.6728515625 48.7532552083333  88.5 48.3289930555556  88.5 47.8125  L 88.5 44.2708333333333  C 88.5 43.7543402777778  88.6728515625 43.330078125  89.0185546875 42.998046875  C 89.3642578125 42.666015625  89.8059895833334 42.5  90.34375 42  L 101.40625 42  C 101.944010416667 42.5  102.3857421875 42.666015625  102.7314453125 42.998046875  Z M 102.7314453125 28.8313802083333  C 103.0771484375 29.1634114583333  103.25 29.5876736111111  103.25 30.1041666666667  L 103.25 33.6458333333333  C 103.25 34.1623263888889  103.0771484375 34.5865885416667  102.7314453125 34.9186197916667  C 102.3857421875 35.2506510416667  101.944010416667 35.4166666666667  101.40625 36  L 60.84375 36  C 60.3059895833333 35.4166666666667  59.8642578125 35.2506510416667  59.5185546875 34.9186197916667  C 59.1728515625 34.5865885416667  59 34.1623263888889  59 33.6458333333333  L 59 30.1041666666667  C 59 29.5876736111111  59.1728515625 29.1634114583333  59.5185546875 28.8313802083333  C 59.8642578125 28.4993489583333  60.3059895833333 28.3333333333333  60.84375 29  L 101.40625 29  C 101.944010416667 28.3333333333333  102.3857421875 28.4993489583333  102.7314453125 28.8313802083333  Z M 110.07763671875 77.3909505208333  C 110.442545572917 77.0404730902778  110.625 76.6254340277778  110 76.1458333333333  L 110 15  L 8 15  L 8 76.1458333333333  C 7.375 76.6254340277778  7.55745442708333 77.0404730902778  7.92236328125 77.3909505208333  C 8.28727213541667 77.7414279513889  8.71940104166667 77.9166666666667  9.21875 78  L 108.78125 78  C 109.280598958333 77.9166666666667  109.712727864583 77.7414279513889  110.07763671875 77.3909505208333  Z M 115.2919921875 2.60091145833334  C 117.097330729167 4.33485243055555  118 6.41927083333334  118 8.85416666666666  L 118 76.1458333333333  C 118 78.5807291666667  117.097330729167 80.6651475694444  115.2919921875 82.3990885416667  C 113.486653645833 84.1330295138889  111.31640625 85  108.78125 85  L 9.21875 85  C 6.68359375 85  4.51334635416667 84.1330295138889  2.7080078125 82.3990885416667  C 0.902669270833333 80.6651475694444  0 78.5807291666667  0 76.1458333333333  L 0 8.85416666666666  C 0 6.41927083333334  0.902669270833333 4.33485243055555  2.7080078125 2.60091145833334  C 4.51334635416667 0.866970486111103  6.68359375 0  9.21875 0  L 108.78125 0  C 111.31640625 0  113.486653645833 0.866970486111103  115.2919921875 2.60091145833334  Z " fill-rule="nonzero" fill="#4a90e2" stroke="none" transform="matrix(1 0 0 1 100 301 )" />
  </g>
</svg>