<?xml version="1.0" encoding="utf-8"?>
<svg version="1.1" xmlns:xlink="http://www.w3.org/1999/xlink" width="205px" height="140px" xmlns="http://www.w3.org/2000/svg">
  <defs>
    <mask fill="white" id="clip73">
      <path d="M 82 39.8888888888889  L 82 95.7777777777778  L 136.666666666667 68  L 82 39.8888888888889  Z M 30.8528428093645 1.99999999999999  C 49.9739873652917 0.666666666666664  73.8563730955035 0  102.5 0  C 115.298216276477 0  127.65839836492 0.166666666666666  139.580546265329 0.499999999999998  C 151.502694165738 0.83333333333333  160.244332961724 1.18518518518518  165.805462653289 1.55555555555555  L 174.147157190635 1.99999999999999  C 174.223337049424 1.99999999999999  174.870865849127 2.05555555555555  176.089743589744 2.16666666666666  C 177.30862133036 2.27777777777779  178.184689706429 2.3888888888889  178.717948717949 2.50000000000001  C 179.251207729469 2.61111111111112  180.146321070234 2.77777777777778  181.403288740245 3  C 182.660256410256 3.22222222222223  183.745819397993 3.5185185185185  184.659977703456 3.88888888888889  C 185.574136008919 4.25925925925925  186.640654031958 4.74074074074072  187.859531772575 5.33333333333333  C 189.078409513192 5.92592592592591  190.259197324415 6.64814814814815  191.401895206243 7.5  C 192.544593088071 8.35185185185183  193.649201040505 9.33333333333333  194.715719063545 10.4444444444444  C 195.172798216276 10.8888888888889  195.763192121888 11.5740740740741  196.486900780379 12.5  C 197.21060943887 13.4259259259259  198.315217391304 15.5925925925926  199.800724637681 19  C 201.286231884058 22.4074074074074  202.295615013006 26.1481481481481  202.828874024526 30.2222222222222  C 203.438312894835 34.962962962963  203.914437012263 40.0185185185185  204.257246376812 45.3888888888889  C 204.60005574136 50.7592592592593  204.809550353029 54.9629629629629  204.885730211817 58  L 204.885730211817 62.4444444444444  L 204.885730211817 77.5555555555556  C 204.961910070606 88.2962962962963  204.276291341509 99.037037037037  202.828874024526 109.777777777778  C 202.295615013006 113.851851851852  201.343366778149 117.537037037037  199.972129319955 120.833333333333  C 198.600891861761 124.12962962963  197.382014121145 126.407407407407  196.315496098105 127.666666666667  L 194.715719063545 129.555555555556  C 193.649201040505 130.666666666667  192.544593088071 131.648148148148  191.401895206243 132.5  C 190.259197324415 133.351851851852  189.078409513192 134.055555555556  187.859531772575 134.611111111111  C 186.640654031958 135.166666666667  185.574136008919 135.62962962963  184.659977703456 136  C 183.745819397993 136.37037037037  182.660256410256 136.666666666667  181.403288740245 136.888888888889  C 180.146321070234 137.111111111111  179.232162764771 137.277777777778  178.660813823857 137.388888888889  C 178.089464882943 137.5  177.213396506875 137.611111111111  176.032608695652 137.722222222222  C 174.85182088443 137.833333333333  174.223337049424 137.888888888889  174.147157190635 137.888888888889  C 155.026012634708 139.296296296296  131.143626904496 140  102.5 140  C 86.7307692307692 139.851851851852  73.0374396135266 139.611111111111  61.420011148272 139.277777777778  C 49.8025826830175 138.944444444444  42.1655518394649 138.666666666667  38.5089186176143 138.444444444444  L 32.9096989966555 138  L 28.7959866220736 137.555555555556  C 26.0535117056856 137.185185185185  23.9776105536975 136.814814814815  22.5682831661093 136.444444444444  C 21.158955778521 136.074074074074  19.2163693794129 135.296296296296  16.7405239687848 134.111111111111  C 14.2646785581568 132.925925925926  12.1125975473802 131.407407407407  10.2842809364549 129.555555555556  C 9.82720178372352 129.111111111111  9.23680787811223 128.425925925926  8.51309921962096 127.5  C 7.78939056112969 126.574074074074  6.68478260869565 124.407407407407  5.19927536231884 121  C 3.71376811594203 117.592592592593  2.70438498699368 113.851851851852  2.1711259754738 109.777777777778  C 1.56168710516537 105.037037037037  1.0855629877369 99.9814814814815  0.742753623188406 94.6111111111111  C 0.399944258639911 89.2407407407407  0.190449646971386 85.037037037037  0.114269788182832 82  L 0.114269788182832 77.5555555555556  L 0.114269788182832 62.4444444444444  C 0.0380899293942772 51.7037037037037  0.723708658491267 40.962962962963  2.1711259754738 30.2222222222222  C 2.70438498699368 26.1481481481481  3.65663322185061 22.4629629629629  5.02787068004459 19.1666666666667  C 6.39910813823857 15.8703703703704  7.61798587885544 13.5925925925926  8.68450390189521 12.3333333333333  L 10.2842809364549 10.4444444444444  C 11.3507989594946 9.33333333333333  12.4554069119286 8.35185185185183  13.598104793757 7.5  C 14.7408026755853 6.64814814814815  15.9215904868079 5.92592592592591  17.1404682274247 5.33333333333333  C 18.3593459680416 4.74074074074072  19.4258639910814 4.25925925925925  20.340022296544 3.88888888888889  C 21.2541806020067 3.5185185185185  22.3397435897436 3.22222222222223  23.5967112597547 3  C 24.8536789297659 2.77777777777778  25.7487922705314 2.61111111111112  26.2820512820513 2.50000000000001  C 26.8153102935712 2.3888888888889  27.6913786696395 2.27777777777779  28.9102564102564 2.16666666666666  C 30.1291341508733 2.05555555555555  30.776662950576 1.99999999999999  30.8528428093645 1.99999999999999  Z " fill-rule="evenodd" />
    </mask>
  </defs>
  <g transform="matrix(1 0 0 1 -152 -643 )">
    <path d="M 82 39.8888888888889  L 82 95.7777777777778  L 136.666666666667 68  L 82 39.8888888888889  Z M 30.8528428093645 1.99999999999999  C 49.9739873652917 0.666666666666664  73.8563730955035 0  102.5 0  C 115.298216276477 0  127.65839836492 0.166666666666666  139.580546265329 0.499999999999998  C 151.502694165738 0.83333333333333  160.244332961724 1.18518518518518  165.805462653289 1.55555555555555  L 174.147157190635 1.99999999999999  C 174.223337049424 1.99999999999999  174.870865849127 2.05555555555555  176.089743589744 2.16666666666666  C 177.30862133036 2.27777777777779  178.184689706429 2.3888888888889  178.717948717949 2.50000000000001  C 179.251207729469 2.61111111111112  180.146321070234 2.77777777777778  181.403288740245 3  C 182.660256410256 3.22222222222223  183.745819397993 3.5185185185185  184.659977703456 3.88888888888889  C 185.574136008919 4.25925925925925  186.640654031958 4.74074074074072  187.859531772575 5.33333333333333  C 189.078409513192 5.92592592592591  190.259197324415 6.64814814814815  191.401895206243 7.5  C 192.544593088071 8.35185185185183  193.649201040505 9.33333333333333  194.715719063545 10.4444444444444  C 195.172798216276 10.8888888888889  195.763192121888 11.5740740740741  196.486900780379 12.5  C 197.21060943887 13.4259259259259  198.315217391304 15.5925925925926  199.800724637681 19  C 201.286231884058 22.4074074074074  202.295615013006 26.1481481481481  202.828874024526 30.2222222222222  C 203.438312894835 34.962962962963  203.914437012263 40.0185185185185  204.257246376812 45.3888888888889  C 204.60005574136 50.7592592592593  204.809550353029 54.9629629629629  204.885730211817 58  L 204.885730211817 62.4444444444444  L 204.885730211817 77.5555555555556  C 204.961910070606 88.2962962962963  204.276291341509 99.037037037037  202.828874024526 109.777777777778  C 202.295615013006 113.851851851852  201.343366778149 117.537037037037  199.972129319955 120.833333333333  C 198.600891861761 124.12962962963  197.382014121145 126.407407407407  196.315496098105 127.666666666667  L 194.715719063545 129.555555555556  C 193.649201040505 130.666666666667  192.544593088071 131.648148148148  191.401895206243 132.5  C 190.259197324415 133.351851851852  189.078409513192 134.055555555556  187.859531772575 134.611111111111  C 186.640654031958 135.166666666667  185.574136008919 135.62962962963  184.659977703456 136  C 183.745819397993 136.37037037037  182.660256410256 136.666666666667  181.403288740245 136.888888888889  C 180.146321070234 137.111111111111  179.232162764771 137.277777777778  178.660813823857 137.388888888889  C 178.089464882943 137.5  177.213396506875 137.611111111111  176.032608695652 137.722222222222  C 174.85182088443 137.833333333333  174.223337049424 137.888888888889  174.147157190635 137.888888888889  C 155.026012634708 139.296296296296  131.143626904496 140  102.5 140  C 86.7307692307692 139.851851851852  73.0374396135266 139.611111111111  61.420011148272 139.277777777778  C 49.8025826830175 138.944444444444  42.1655518394649 138.666666666667  38.5089186176143 138.444444444444  L 32.9096989966555 138  L 28.7959866220736 137.555555555556  C 26.0535117056856 137.185185185185  23.9776105536975 136.814814814815  22.5682831661093 136.444444444444  C 21.158955778521 136.074074074074  19.2163693794129 135.296296296296  16.7405239687848 134.111111111111  C 14.2646785581568 132.925925925926  12.1125975473802 131.407407407407  10.2842809364549 129.555555555556  C 9.82720178372352 129.111111111111  9.23680787811223 128.425925925926  8.51309921962096 127.5  C 7.78939056112969 126.574074074074  6.68478260869565 124.407407407407  5.19927536231884 121  C 3.71376811594203 117.592592592593  2.70438498699368 113.851851851852  2.1711259754738 109.777777777778  C 1.56168710516537 105.037037037037  1.0855629877369 99.9814814814815  0.742753623188406 94.6111111111111  C 0.399944258639911 89.2407407407407  0.190449646971386 85.037037037037  0.114269788182832 82  L 0.114269788182832 77.5555555555556  L 0.114269788182832 62.4444444444444  C 0.0380899293942772 51.7037037037037  0.723708658491267 40.962962962963  2.1711259754738 30.2222222222222  C 2.70438498699368 26.1481481481481  3.65663322185061 22.4629629629629  5.02787068004459 19.1666666666667  C 6.39910813823857 15.8703703703704  7.61798587885544 13.5925925925926  8.68450390189521 12.3333333333333  L 10.2842809364549 10.4444444444444  C 11.3507989594946 9.33333333333333  12.4554069119286 8.35185185185183  13.598104793757 7.5  C 14.7408026755853 6.64814814814815  15.9215904868079 5.92592592592591  17.1404682274247 5.33333333333333  C 18.3593459680416 4.74074074074072  19.4258639910814 4.25925925925925  20.340022296544 3.88888888888889  C 21.2541806020067 3.5185185185185  22.3397435897436 3.22222222222223  23.5967112597547 3  C 24.8536789297659 2.77777777777778  25.7487922705314 2.61111111111112  26.2820512820513 2.50000000000001  C 26.8153102935712 2.3888888888889  27.6913786696395 2.27777777777779  28.9102564102564 2.16666666666666  C 30.1291341508733 2.05555555555555  30.776662950576 1.99999999999999  30.8528428093645 1.99999999999999  Z " fill-rule="nonzero" fill="#7f7f7f" stroke="none" transform="matrix(1 0 0 1 152 643 )" />
    <path d="M 82 39.8888888888889  L 82 95.7777777777778  L 136.666666666667 68  L 82 39.8888888888889  Z " stroke-width="2" stroke="#7f7f7f" fill="none" transform="matrix(1 0 0 1 152 643 )" mask="url(#clip73)" />
    <path d="M 30.8528428093645 1.99999999999999  C 49.9739873652917 0.666666666666664  73.8563730955035 0  102.5 0  C 115.298216276477 0  127.65839836492 0.166666666666666  139.580546265329 0.499999999999998  C 151.502694165738 0.83333333333333  160.244332961724 1.18518518518518  165.805462653289 1.55555555555555  L 174.147157190635 1.99999999999999  C 174.223337049424 1.99999999999999  174.870865849127 2.05555555555555  176.089743589744 2.16666666666666  C 177.30862133036 2.27777777777779  178.184689706429 2.3888888888889  178.717948717949 2.50000000000001  C 179.251207729469 2.61111111111112  180.146321070234 2.77777777777778  181.403288740245 3  C 182.660256410256 3.22222222222223  183.745819397993 3.5185185185185  184.659977703456 3.88888888888889  C 185.574136008919 4.25925925925925  186.640654031958 4.74074074074072  187.859531772575 5.33333333333333  C 189.078409513192 5.92592592592591  190.259197324415 6.64814814814815  191.401895206243 7.5  C 192.544593088071 8.35185185185183  193.649201040505 9.33333333333333  194.715719063545 10.4444444444444  C 195.172798216276 10.8888888888889  195.763192121888 11.5740740740741  196.486900780379 12.5  C 197.21060943887 13.4259259259259  198.315217391304 15.5925925925926  199.800724637681 19  C 201.286231884058 22.4074074074074  202.295615013006 26.1481481481481  202.828874024526 30.2222222222222  C 203.438312894835 34.962962962963  203.914437012263 40.0185185185185  204.257246376812 45.3888888888889  C 204.60005574136 50.7592592592593  204.809550353029 54.9629629629629  204.885730211817 58  L 204.885730211817 62.4444444444444  L 204.885730211817 77.5555555555556  C 204.961910070606 88.2962962962963  204.276291341509 99.037037037037  202.828874024526 109.777777777778  C 202.295615013006 113.851851851852  201.343366778149 117.537037037037  199.972129319955 120.833333333333  C 198.600891861761 124.12962962963  197.382014121145 126.407407407407  196.315496098105 127.666666666667  L 194.715719063545 129.555555555556  C 193.649201040505 130.666666666667  192.544593088071 131.648148148148  191.401895206243 132.5  C 190.259197324415 133.351851851852  189.078409513192 134.055555555556  187.859531772575 134.611111111111  C 186.640654031958 135.166666666667  185.574136008919 135.62962962963  184.659977703456 136  C 183.745819397993 136.37037037037  182.660256410256 136.666666666667  181.403288740245 136.888888888889  C 180.146321070234 137.111111111111  179.232162764771 137.277777777778  178.660813823857 137.388888888889  C 178.089464882943 137.5  177.213396506875 137.611111111111  176.032608695652 137.722222222222  C 174.85182088443 137.833333333333  174.223337049424 137.888888888889  174.147157190635 137.888888888889  C 155.026012634708 139.296296296296  131.143626904496 140  102.5 140  C 86.7307692307692 139.851851851852  73.0374396135266 139.611111111111  61.420011148272 139.277777777778  C 49.8025826830175 138.944444444444  42.1655518394649 138.666666666667  38.5089186176143 138.444444444444  L 32.9096989966555 138  L 28.7959866220736 137.555555555556  C 26.0535117056856 137.185185185185  23.9776105536975 136.814814814815  22.5682831661093 136.444444444444  C 21.158955778521 136.074074074074  19.2163693794129 135.296296296296  16.7405239687848 134.111111111111  C 14.2646785581568 132.925925925926  12.1125975473802 131.407407407407  10.2842809364549 129.555555555556  C 9.82720178372352 129.111111111111  9.23680787811223 128.425925925926  8.51309921962096 127.5  C 7.78939056112969 126.574074074074  6.68478260869565 124.407407407407  5.19927536231884 121  C 3.71376811594203 117.592592592593  2.70438498699368 113.851851851852  2.1711259754738 109.777777777778  C 1.56168710516537 105.037037037037  1.0855629877369 99.9814814814815  0.742753623188406 94.6111111111111  C 0.399944258639911 89.2407407407407  0.190449646971386 85.037037037037  0.114269788182832 82  L 0.114269788182832 77.5555555555556  L 0.114269788182832 62.4444444444444  C 0.0380899293942772 51.7037037037037  0.723708658491267 40.962962962963  2.1711259754738 30.2222222222222  C 2.70438498699368 26.1481481481481  3.65663322185061 22.4629629629629  5.02787068004459 19.1666666666667  C 6.39910813823857 15.8703703703704  7.61798587885544 13.5925925925926  8.68450390189521 12.3333333333333  L 10.2842809364549 10.4444444444444  C 11.3507989594946 9.33333333333333  12.4554069119286 8.35185185185183  13.598104793757 7.5  C 14.7408026755853 6.64814814814815  15.9215904868079 5.92592592592591  17.1404682274247 5.33333333333333  C 18.3593459680416 4.74074074074072  19.4258639910814 4.25925925925925  20.340022296544 3.88888888888889  C 21.2541806020067 3.5185185185185  22.3397435897436 3.22222222222223  23.5967112597547 3  C 24.8536789297659 2.77777777777778  25.7487922705314 2.61111111111112  26.2820512820513 2.50000000000001  C 26.8153102935712 2.3888888888889  27.6913786696395 2.27777777777779  28.9102564102564 2.16666666666666  C 30.1291341508733 2.05555555555555  30.776662950576 1.99999999999999  30.8528428093645 1.99999999999999  Z " stroke-width="2" stroke="#7f7f7f" fill="none" transform="matrix(1 0 0 1 152 643 )" mask="url(#clip73)" />
  </g>
</svg>