<?xml version="1.0" encoding="utf-8"?>
<svg version="1.1" xmlns:xlink="http://www.w3.org/1999/xlink" width="24px" height="24px" viewBox="375 359  24 24" xmlns="http://www.w3.org/2000/svg">
  <path d="M 387 359  C 393.72 359  399 364.28  399 371  C 399 377.72  393.72 383  387 383  C 380.28 383  375 377.72  375 371  C 375 364.28  380.28 359  387 359  Z " fill-rule="nonzero" fill="#ffffff" stroke="none" />
  <path d="M 387 359.5  C 393.44 359.5  398.5 364.56  398.5 371  C 398.5 377.44  393.44 382.5  387 382.5  C 380.56 382.5  375.5 377.44  375.5 371  C 375.5 364.56  380.56 359.5  387 359.5  Z " stroke-width="1" stroke="#797979" fill="none" />
  <path d="M 387 377  C 383.64 377  381 374.36  381 371  C 381 367.64  383.64 365  387 365  C 390.36 365  393 367.64  393 371  C 393 374.36  390.36 377  387 377  " fill-rule="nonzero" fill="#797979" stroke="none" />
</svg>