<?xml version="1.0" encoding="utf-8"?>
<svg version="1.1" xmlns:xlink="http://www.w3.org/1999/xlink" width="24px" height="24px" viewBox="375 461  24 24" xmlns="http://www.w3.org/2000/svg">
  <path d="M 387 461  C 393.72 461  399 466.28  399 473  C 399 479.72  393.72 485  387 485  C 380.28 485  375 479.72  375 473  C 375 466.28  380.28 461  387 461  Z " fill-rule="nonzero" fill="#ffffff" stroke="none" />
  <path d="M 387 461.5  C 393.44 461.5  398.5 466.56  398.5 473  C 398.5 479.44  393.44 484.5  387 484.5  C 380.56 484.5  375.5 479.44  375.5 473  C 375.5 466.56  380.56 461.5  387 461.5  Z " stroke-width="1" stroke="#797979" fill="none" />
  <path d="M 387 479  C 383.64 479  381 476.36  381 473  C 381 469.64  383.64 467  387 467  C 390.36 467  393 469.64  393 473  C 393 476.36  390.36 479  387 479  " fill-rule="nonzero" fill="#797979" stroke="none" />
</svg>