<?xml version="1.0" encoding="utf-8"?>
<svg version="1.1" xmlns:xlink="http://www.w3.org/1999/xlink" width="24px" height="24px" viewBox="375 516  24 24" xmlns="http://www.w3.org/2000/svg">
  <path d="M 387 516  C 393.72 516  399 521.28  399 528  C 399 534.72  393.72 540  387 540  C 380.28 540  375 534.72  375 528  C 375 521.28  380.28 516  387 516  Z " fill-rule="nonzero" fill="#ffffff" stroke="none" />
  <path d="M 387 516.5  C 393.44 516.5  398.5 521.56  398.5 528  C 398.5 534.44  393.44 539.5  387 539.5  C 380.56 539.5  375.5 534.44  375.5 528  C 375.5 521.56  380.56 516.5  387 516.5  Z " stroke-width="1" stroke="#797979" fill="none" />
  <path d="M 387 534  C 383.64 534  381 531.36  381 528  C 381 524.64  383.64 522  387 522  C 390.36 522  393 524.64  393 528  C 393 531.36  390.36 534  387 534  " fill-rule="nonzero" fill="#797979" stroke="none" />
</svg>