<?xml version="1.0" encoding="utf-8"?>
<svg version="1.1" xmlns:xlink="http://www.w3.org/1999/xlink" width="40px" height="34px" xmlns="http://www.w3.org/2000/svg">
  <g transform="matrix(1 0 0 1 -1125 -996 )">
    <path d="M 13.4486607142857 16.5029900332226  C 14.0066964285714 15.9382059800664  14.2857142857143 15.256699889258  14.2857142857143 14.4584717607973  C 14.2857142857143 13.6602436323367  14.0066964285714 12.9787375415282  13.4486607142857 12.4139534883721  C 12.890625 11.8491694352159  12.2172619047619 11.5667774086379  11.4285714285714 11.5667774086379  C 10.639880952381 11.5667774086379  9.96651785714286 11.8491694352159  9.40848214285714 12.4139534883721  C 8.85044642857143 12.9787375415282  8.57142857142857 13.6602436323367  8.57142857142857 14.4584717607973  C 8.57142857142857 15.256699889258  8.85044642857143 15.9382059800664  9.40848214285714 16.5029900332226  C 9.96651785714286 17.0677740863787  10.639880952381 17.3501661129568  11.4285714285714 17.3501661129568  C 12.2172619047619 17.3501661129568  12.890625 17.0677740863787  13.4486607142857 16.5029900332226  Z M 22.0200892857143 16.5029900332226  C 22.578125 15.9382059800664  22.8571428571429 15.256699889258  22.8571428571429 14.4584717607973  C 22.8571428571429 13.6602436323367  22.578125 12.9787375415282  22.0200892857143 12.4139534883721  C 21.4620535714286 11.8491694352159  20.7886904761905 11.5667774086379  20 11.5667774086379  C 19.2113095238095 11.5667774086379  18.5379464285714 11.8491694352159  17.9799107142857 12.4139534883721  C 17.421875 12.9787375415282  17.1428571428571 13.6602436323367  17.1428571428571 14.4584717607973  C 17.1428571428571 15.256699889258  17.421875 15.9382059800664  17.9799107142857 16.5029900332226  C 18.5379464285714 17.0677740863787  19.2113095238095 17.3501661129568  20 17.3501661129568  C 20.7886904761905 17.3501661129568  21.4620535714286 17.0677740863787  22.0200892857143 16.5029900332226  Z M 30.5915178571429 16.5029900332226  C 31.1495535714286 15.9382059800664  31.4285714285714 15.256699889258  31.4285714285714 14.4584717607973  C 31.4285714285714 13.6602436323367  31.1495535714286 12.9787375415282  30.5915178571429 12.4139534883721  C 30.0334821428571 11.8491694352159  29.3601190476191 11.5667774086379  28.5714285714286 11.5667774086379  C 27.7827380952381 11.5667774086379  27.109375 11.8491694352159  26.5513392857143 12.4139534883721  C 25.9933035714286 12.9787375415282  25.7142857142857 13.6602436323367  25.7142857142857 14.4584717607973  C 25.7142857142857 15.256699889258  25.9933035714286 15.9382059800664  26.5513392857143 16.5029900332226  C 27.109375 17.0677740863787  27.7827380952381 17.3501661129568  28.5714285714286 17.3501661129568  C 29.3601190476191 17.3501661129568  30.0334821428571 17.0677740863787  30.5915178571429 16.5029900332226  Z M 37.3214285714286 7.1953488372093  C 39.1071428571429 9.41683277962348  40 11.8378737541528  40 14.4584717607973  C 40 17.0790697674419  39.1071428571429 19.5001107419712  37.3214285714286 21.7215946843854  C 35.5357142857143 23.9430786267996  33.1101190476191 25.6976744186047  30.0446428571429 26.9853820598007  C 26.9791666666667 28.2730897009967  23.6309523809524 28.9169435215947  20 28.9169435215947  C 18.3630952380952 28.9169435215947  16.7931547619048 28.7813953488372  15.2901785714286 28.5102990033223  C 12.7157738095238 31.1158361018826  9.47916666666667 32.8403100775194  5.58035714285714 33.6837209302326  C 4.80654761904762 33.8343300110742  4.16666666666667 33.9322259136213  3.66071428571429 33.9774086378738  C 3.48214285714286 33.9924695459579  3.31845238095238 33.9472868217054  3.16964285714286 33.8418604651163  C 3.02083333333333 33.7364341085271  2.92410714285714 33.6008859357697  2.87946428571429 33.4352159468439  C 2.81994047619048 33.2093023255814  2.96875 32.9306755260244  3.32589285714286 32.5993355481728  C 3.40029761904762 32.5240310077519  3.57514880952381 32.3621262458472  3.85044642857143 32.1136212624585  C 4.12574404761905 31.8651162790698  4.31547619047619 31.6881506090808  4.41964285714286 31.5827242524917  C 4.52380952380952 31.4772978959025  4.69866071428571 31.2852713178295  4.94419642857143 31.0066445182724  C 5.18973214285714 30.7280177187154  5.36830357142857 30.4908084163898  5.47991071428571 30.2950166112957  C 5.59151785714286 30.0992248062015  5.74404761904762 29.8205980066445  5.9375 29.4591362126246  C 6.13095238095238 29.0976744186047  6.27976190476191 28.7362126245847  6.38392857142857 28.3747508305648  C 6.48809523809524 28.0132890365449  6.59598214285714 27.5802879291251  6.70758928571429 27.0757475083056  C 6.81919642857143 26.5712070874862  6.91220238095238 26.0252491694352  6.98660714285714 25.4378737541528  C 4.8139880952381 24.0823920265781  3.10639880952381 22.4520487264673  1.86383928571429 20.5468438538206  C 0.621279761904762 18.6416389811739  0 16.6121816168328  0 14.4584717607973  C 0 11.8378737541528  0.892857142857143 9.41683277962348  2.67857142857143 7.1953488372093  C 4.46428571428572 4.97386489479512  6.88988095238095 3.21926910299003  9.95535714285714 1.93156146179402  C 13.0208333333333 0.643853820598008  16.3690476190476 0  20 0  C 23.6309523809524 0  26.9791666666667 0.643853820598008  30.0446428571429 1.93156146179402  C 33.1101190476191 3.21926910299003  35.5357142857143 4.97386489479512  37.3214285714286 7.1953488372093  Z " fill-rule="nonzero" fill="#4b90e2" stroke="none" transform="matrix(1 0 0 1 1125 996 )" />
  </g>
</svg>