<?xml version="1.0" encoding="utf-8"?>
<svg version="1.1" xmlns:xlink="http://www.w3.org/1999/xlink" width="80px" height="77px" xmlns="http://www.w3.org/2000/svg">
  <g transform="matrix(1 0 0 1 -311 -208 )">
    <path d="M 24.4642857142857 3.05078125  C 29.4047619047619 1.01692708333333  34.5833333333333 0  40 0  C 45.4166666666667 0  50.5952380952381 1.01692708333333  55.5357142857143 3.05078125  C 60.4761904761905 5.08463541666666  64.7321428571429 7.8203125  68.3035714285714 11.2578125  C 71.875 14.6953125  74.7172619047619 18.7916666666667  76.8303571428571 23.546875  C 78.9434523809524 28.3020833333333  80 33.2864583333333  80 38.5  C 80 43.6848958333333  78.9508928571429 48.6549479166667  76.8526785714286 53.41015625  C 74.7544642857143 58.1653645833333  71.9196428571429 62.26171875  68.3482142857143 65.69921875  C 64.7767857142857 69.13671875  60.5208333333333 71.8795572916667  55.5803571428571 73.927734375  C 50.639880952381 75.9759114583333  45.4464285714286 77  40 77  C 34.5535714285714 77  29.3601190476191 75.9830729166667  24.4196428571429 73.94921875  C 19.4791666666667 71.9153645833333  15.2306547619048 69.1725260416667  11.6741071428571 65.720703125  C 8.11755952380952 62.2688802083333  5.28273809523809 58.1725260416667  3.16964285714286 53.431640625  C 1.05654761904762 48.6907552083333  0 43.7135416666667  0 38.5  C 0 33.2864583333333  1.05654761904762 28.3020833333333  3.16964285714286 23.546875  C 5.28273809523809 18.7916666666667  8.125 14.6953125  11.6964285714286 11.2578125  C 15.2678571428571 7.8203125  19.5238095238095 5.08463541666666  24.4642857142857 3.05078125  Z M 53.9732142857143 44  C 61.1160714285714 44  65.6696428571429 48.68359375  67.6339285714286 58.05078125  C 72.0684523809524 52.1783854166667  74.2857142857143 45.6614583333333  74.2857142857143 38.5  C 74.2857142857143 34.03125  73.3779761904762 29.7630208333333  71.5625 25.6953125  C 69.7470238095238 21.6276041666667  67.3065476190476 18.1184895833333  64.2410714285714 15.16796875  C 61.1755952380952 12.2174479166667  57.5297619047619 9.86848958333333  53.3035714285714 8.12109375  C 49.077380952381 6.37369791666666  44.6428571428571 5.5  40 5.5  C 35.3571428571429 5.5  30.9226190476191 6.37369791666666  26.6964285714286 8.12109375  C 22.4702380952381 9.86848958333333  18.8244047619048 12.2174479166667  15.7589285714286 15.16796875  C 12.6934523809524 18.1184895833333  10.2529761904762 21.6276041666667  8.4375 25.6953125  C 6.62202380952381 29.7630208333333  5.71428571428571 34.03125  5.71428571428571 38.5  C 5.71428571428571 45.6614583333333  7.93154761904762 52.1783854166667  12.3660714285714 58.05078125  C 14.3303571428571 48.68359375  18.8839285714286 44  26.0267857142857 44  C 29.9255952380952 47.6666666666667  34.5833333333333 49.5  40 49.5  C 45.4166666666667 49.5  50.0744047619048 47.6666666666667  53.9732142857143 44  Z M 52.1205357142857 41.916015625  C 55.46875 38.693359375  57.1428571428571 34.8046875  57.1428571428571 30.25  C 57.1428571428571 25.6953125  55.46875 21.806640625  52.1205357142857 18.583984375  C 48.7723214285714 15.361328125  44.7321428571429 13.75  40 13.75  C 35.2678571428571 13.75  31.2276785714286 15.361328125  27.8794642857143 18.583984375  C 24.53125 21.806640625  22.8571428571429 25.6953125  22.8571428571429 30.25  C 22.8571428571429 34.8046875  24.53125 38.693359375  27.8794642857143 41.916015625  C 31.2276785714286 45.138671875  35.2678571428571 46.75  40 46.75  C 44.7321428571429 46.75  48.7723214285714 45.138671875  52.1205357142857 41.916015625  Z " fill-rule="nonzero" fill="#4b90e2" stroke="none" transform="matrix(1 0 0 1 311 208 )" />
  </g>
</svg>