<?xml version="1.0" encoding="utf-8"?>
<svg version="1.1" xmlns:xlink="http://www.w3.org/1999/xlink" width="45px" height="38px" xmlns="http://www.w3.org/2000/svg">
  <g transform="matrix(1 0 0 1 -916 -815 )">
    <path d="M 15.1297433035714 18.4445182724252  C 15.7575334821429 17.8132890365448  16.0714285714286 17.0516057585825  16.0714285714286 16.1594684385382  C 16.0714285714286 15.2673311184939  15.7575334821429 14.5056478405316  15.1297433035714 13.8744186046512  C 14.501953125 13.2431893687708  13.7444196428571 12.9275747508306  12.8571428571429 12.9275747508306  C 11.9698660714286 12.9275747508306  11.2123325892857 13.2431893687708  10.5845424107143 13.8744186046512  C 9.95675223214286 14.5056478405316  9.64285714285714 15.2673311184939  9.64285714285714 16.1594684385382  C 9.64285714285714 17.0516057585825  9.95675223214286 17.8132890365448  10.5845424107143 18.4445182724252  C 11.2123325892857 19.0757475083056  11.9698660714286 19.3913621262458  12.8571428571429 19.3913621262458  C 13.7444196428571 19.3913621262458  14.501953125 19.0757475083056  15.1297433035714 18.4445182724252  Z M 24.7726004464286 18.4445182724252  C 25.400390625 17.8132890365448  25.7142857142857 17.0516057585825  25.7142857142857 16.1594684385382  C 25.7142857142857 15.2673311184939  25.400390625 14.5056478405316  24.7726004464286 13.8744186046512  C 24.1448102678571 13.2431893687708  23.3872767857143 12.9275747508306  22.5 12.9275747508306  C 21.6127232142857 12.9275747508306  20.8551897321429 13.2431893687708  20.2273995535714 13.8744186046512  C 19.599609375 14.5056478405316  19.2857142857143 15.2673311184939  19.2857142857143 16.1594684385382  C 19.2857142857143 17.0516057585825  19.599609375 17.8132890365448  20.2273995535714 18.4445182724252  C 20.8551897321429 19.0757475083056  21.6127232142857 19.3913621262458  22.5 19.3913621262458  C 23.3872767857143 19.3913621262458  24.1448102678571 19.0757475083056  24.7726004464286 18.4445182724252  Z M 34.4154575892857 18.4445182724252  C 35.0432477678571 17.8132890365448  35.3571428571429 17.0516057585825  35.3571428571429 16.1594684385382  C 35.3571428571429 15.2673311184939  35.0432477678571 14.5056478405316  34.4154575892857 13.8744186046512  C 33.7876674107143 13.2431893687708  33.0301339285714 12.9275747508306  32.1428571428571 12.9275747508306  C 31.2555803571429 12.9275747508306  30.498046875 13.2431893687708  29.8702566964286 13.8744186046512  C 29.2424665178571 14.5056478405316  28.9285714285714 15.2673311184939  28.9285714285714 16.1594684385382  C 28.9285714285714 17.0516057585825  29.2424665178571 17.8132890365448  29.8702566964286 18.4445182724252  C 30.498046875 19.0757475083056  31.2555803571429 19.3913621262458  32.1428571428571 19.3913621262458  C 33.0301339285714 19.3913621262458  33.7876674107143 19.0757475083056  34.4154575892857 18.4445182724252  Z M 41.9866071428571 8.04186046511628  C 43.9955357142857 10.5246954595792  45 13.2305647840532  45 16.1594684385382  C 45 19.0883720930233  43.9955357142857 21.7942414174972  41.9866071428571 24.2770764119601  C 39.9776785714286 26.759911406423  37.2488839285714 28.7209302325581  33.8002232142857 30.1601328903654  C 30.3515625 31.5993355481728  26.5848214285714 32.3189368770764  22.5 32.3189368770764  C 20.6584821428571 32.3189368770764  18.8922991071429 32.1674418604651  17.2014508928571 31.8644518272425  C 14.3052455357143 34.7765227021041  10.6640625 36.7038759689923  6.27790178571429 37.646511627907  C 5.40736607142857 37.8148394241418  4.6875 37.9242524916944  4.11830357142857 37.9747508305648  C 3.91741071428571 37.9915836101883  3.73325892857143 37.9410852713178  3.56584821428571 37.8232558139535  C 3.3984375 37.7054263565891  3.28962053571429 37.5539313399779  3.23939732142857 37.3687707641196  C 3.17243303571429 37.1162790697674  3.33984375 36.8048726467331  3.74162946428571 36.4345514950166  C 3.82533482142857 36.3503875968992  4.02204241071429 36.1694352159468  4.33175223214286 35.8916943521595  C 4.64146205357143 35.6139534883721  4.85491071428571 35.4161683277962  4.97209821428571 35.2983388704319  C 5.08928571428572 35.1805094130676  5.28599330357143 34.9658914728682  5.56222098214286 34.6544850498339  C 5.83844866071429 34.3430786267996  6.03934151785714 34.0779623477298  6.16489955357143 33.8591362126246  C 6.29045758928571 33.6403100775194  6.46205357142857 33.328903654485  6.6796875 32.9249169435216  C 6.89732142857143 32.5209302325581  7.06473214285714 32.1169435215947  7.18191964285714 31.7129568106312  C 7.29910714285714 31.3089700996678  7.42047991071429 30.8250276854928  7.54603794642857 30.2611295681063  C 7.67159598214286 29.6972314507198  7.77622767857143 29.0870431893688  7.85993303571429 28.4305647840532  C 5.41573660714286 26.9156146179402  3.49469866071429 25.0934662236988  2.09681919642857 22.9641196013289  C 0.698939732142857 20.834772978959  0 18.5665559246955  0 16.1594684385382  C 0 13.2305647840532  1.00446428571429 10.5246954595792  3.01339285714286 8.04186046511628  C 5.02232142857143 5.55902547065337  7.75111607142857 3.59800664451827  11.1997767857143 2.15880398671096  C 14.6484375 0.719601328903656  18.4151785714286 0  22.5 0  C 26.5848214285714 0  30.3515625 0.719601328903656  33.8002232142857 2.15880398671096  C 37.2488839285714 3.59800664451827  39.9776785714286 5.55902547065337  41.9866071428571 8.04186046511628  Z " fill-rule="nonzero" fill="#4b90e2" stroke="none" transform="matrix(1 0 0 1 916 815 )" />
  </g>
</svg>