<?xml version="1.0" encoding="utf-8"?>
<svg version="1.1" xmlns:xlink="http://www.w3.org/1999/xlink" width="45px" height="41px" xmlns="http://www.w3.org/2000/svg">
  <g transform="matrix(1 0 0 1 -1096 -813 )">
    <path d="M 37.5090144230769 25.625  C 37.8876201923077 25.78515625  38.0769230769231 26.0431857638889  38.0769230769231 26.3990885416667  L 38.0769230769231 33.3125  C 38.0769230769231 35.4301215277778  37.3152043269231 37.2407769097222  35.7917668269231 38.7444661458333  C 34.2683293269231 40.2481553819444  32.4338942307692 41  30.2884615384615 41  L 7.78846153846154 41  C 5.64302884615385 41  3.80859375 40.2481553819444  2.28515625 38.7444661458333  C 0.76171875 37.2407769097222  0 35.4301215277778  0 33.3125  L 0 11.1041666666667  C 0 8.98654513888889  0.76171875 7.17588975694444  2.28515625 5.67220052083333  C 3.80859375 4.16851128472222  5.64302884615385 3.41666666666667  7.78846153846154 3.41666666666667  L 14.6844951923077 3.41666666666667  C 14.9188701923077 3.41666666666667  15.1216947115385 3.50119357638888  15.29296875 3.67024739583333  C 15.4642427884615 3.83930121527777  15.5498798076923 4.03949652777777  15.5498798076923 4.27083333333333  C 15.5498798076923 4.75130208333333  15.3155048076923 5.03602430555555  14.8467548076923 5.125  C 13.4585336538462 5.58767361111111  12.2596153846154 6.12152777777777  11.25 6.7265625  C 11.0697115384615 6.79774305555555  10.9254807692308 6.83333333333333  10.8173076923077 6.83333333333333  L 7.78846153846154 6.83333333333333  C 6.59855769230769 6.83333333333333  5.57992788461539 7.25151909722222  4.73257211538462 8.087890625  C 3.88521634615385 8.92426215277778  3.46153846153846 9.9296875  4 11.1041666666667  L 4 33.3125  C 3.46153846153846 34.4869791666667  3.88521634615385 35.4924045138889  4.73257211538462 36.3287760416667  C 5.57992788461539 37.1651475694444  6.59855769230769 37.5833333333333  7.78846153846154 37  L 30.2884615384615 37  C 31.4783653846154 37.5833333333333  32.4969951923077 37.1651475694444  33.3443509615385 36.3287760416667  C 34.1917067307692 35.4924045138889  34.6153846153846 34.4869791666667  34.6153846153846 33.3125  L 34.6153846153846 27.6002604166667  C 34.6153846153846 27.2621527777778  34.7776442307692 27.0041232638889  35.1021634615385 26.826171875  C 35.6069711538462 26.5948350694444  36.09375 26.265625  36.5625 25.8385416666667  C 36.8509615384615 25.5538194444444  37.1664663461539 25.4826388888889  37.5090144230769 25.625  Z M 45 11.9583333333333  C 45 12.4210069444444  44.8287259615385 12.8213975694444  44.4861778846154 13.1595052083333  L 34.1015625 23.4095052083333  C 33.7770432692308 23.7476128472222  33.3713942307692 23.9166666666667  32.8846153846154 23.9166666666667  C 32.6682692307692 23.9166666666667  32.4429086538462 23.8721788194444  32.2085336538462 23.783203125  C 31.5054086538462 23.4806857638889  31.1538461538462 22.9557291666667  31.1538461538462 22.2083333333333  L 31.1538461538462 17.0833333333333  L 26.8269230769231 17.0833333333333  C 21.0036057692308 17.0833333333333  17.0552884615385 18.2489149305556  14.9819711538462 20.580078125  C 12.8365384615385 23.0180121527778  12.1694711538462 27.2265625  12.9807692307692 33.2057291666667  C 13.0348557692308 33.6150173611111  12.8545673076923 33.9175347222222  12.4399038461538 34.11328125  C 12.2956730769231 34.1488715277778  12.1875 34.1666666666667  12.1153846153846 34.1666666666667  C 11.8269230769231 34.1666666666667  11.5925480769231 34.0509982638889  11.4122596153846 33.8196614583333  C 11.2319711538462 33.5705295138889  11.0426682692308 33.2947048611111  10.8443509615385 32.9921875  C 10.6460336538462 32.6896701388889  10.2899639423077 32.0801866319444  9.77614182692308 31.1637369791667  C 9.26231971153846 30.2472873263889  8.81610576923077 29.3619791666667  8.4375 28.5078125  C 8.05889423076923 27.6536458333333  7.71183894230769 26.6393229166667  7.39633413461539 25.46484375  C 7.08082932692308 24.2903645833333  6.92307692307692 23.2048611111111  6.92307692307692 22.2083333333333  C 6.92307692307692 21.3363715277778  6.95462740384616 20.5266927083333  7.01772836538461 19.779296875  C 7.08082932692308 19.0319010416667  7.20703125 18.2311197916667  7.39633413461539 17.376953125  C 7.58563701923077 16.5227864583333  7.83804086538462 15.7398003472222  8.15354567307692 15.0279947916667  C 8.46905048076923 14.3161892361111  8.89272836538462 13.5910373263889  9.42457932692308 12.8525390625  C 9.95643028846154 12.1140407986111  10.5739182692308 11.4556206597222  11.2770432692308 10.8772786458333  C 11.9801682692308 10.2989366319444  12.83203125 9.75173611111111  13.8326322115385 9.23567708333333  C 14.8332331730769 8.71961805555555  15.9555288461538 8.2880859375  17.1995192307692 7.94108072916667  C 18.4435096153846 7.59407552083333  19.8813100961539 7.32269965277777  21.5129206730769 7.126953125  C 23.14453125 6.93120659722222  24.9158653846154 6.83333333333333  26.8269230769231 6.83333333333333  L 31.1538461538462 6.83333333333333  L 31.1538461538462 1.70833333333333  C 31.1538461538462 0.9609375  31.5054086538462 0.435980902777774  32.2085336538462 0.133463541666668  C 32.4429086538462 0.0444878472222258  32.6682692307692 0  32.8846153846154 0  C 33.3533653846154 0  33.7590144230769 0.169053819444447  34.1015625 0.507161458333332  L 44.4861778846154 10.7571614583333  C 44.8287259615385 11.0952690972222  45 11.4956597222222  45 11.9583333333333  Z " fill-rule="nonzero" fill="#4d92e3" stroke="none" transform="matrix(1 0 0 1 1096 813 )" />
  </g>
</svg>