<?xml version="1.0" encoding="utf-8"?>
<svg version="1.1" xmlns:xlink="http://www.w3.org/1999/xlink" width="29px" height="29px" xmlns="http://www.w3.org/2000/svg">
  <g transform="matrix(1 0 0 1 -1154 -205 )">
    <path d="M 23.9212239583333 15.349609375  C 24.1477864583333 15.123046875  24.2610677083333 14.83984375  24.2610677083333 14.5  C 24.2610677083333 14.16015625  24.1477864583333 13.876953125  23.9212239583333 13.650390625  L 22.203125 11.9322916666667  L 15.3684895833333 5.09765625  C 15.1419270833333 4.87109375  14.8587239583333 4.7578125  14.5188802083333 4.7578125  C 14.1790364583333 4.7578125  13.8958333333333 4.87109375  13.6692708333333 5.09765625  L 11.951171875 6.81575520833333  C 11.724609375 7.04231770833333  11.611328125 7.32552083333333  11.611328125 7.66536458333333  C 11.611328125 8.00520833333333  11.724609375 8.28841145833333  11.951171875 8.51497395833333  L 15.51953125 12.0833333333333  L 6.04166666666667 12.0833333333333  C 5.71440972222222 12.0833333333333  5.43120659722222 12.2029079861111  5.19205729166667 12.4420572916667  C 4.95290798611111 12.6812065972222  4.83333333333333 12.9644097222222  4.83333333333333 13.2916666666667  L 4.83333333333333 15.7083333333333  C 4.83333333333333 16.0355902777778  4.95290798611111 16.3187934027778  5.19205729166667 16.5579427083333  C 5.43120659722222 16.7970920138889  5.71440972222222 16.9166666666667  6.04166666666667 16.9166666666667  L 15.51953125 16.9166666666667  L 11.951171875 20.4850260416667  C 11.7120225694444 20.7241753472222  11.5924479166667 21.0073784722222  11.5924479166667 21.3346354166667  C 11.5924479166667 21.6618923611111  11.7120225694444 21.9450954861111  11.951171875 22.1842447916667  L 13.6692708333333 23.90234375  C 13.8958333333333 24.12890625  14.1790364583333 24.2421875  14.5188802083333 24.2421875  C 14.8587239583333 24.2421875  15.1419270833333 24.12890625  15.3684895833333 23.90234375  L 22.203125 17.0677083333333  L 23.9212239583333 15.349609375  Z M 27.0553385416667 7.2216796875  C 28.3517795138889 9.44325086805555  29 11.8693576388889  29 14.5  C 29 17.1306423611111  28.3517795138889 19.5567491319444  27.0553385416667 21.7783203125  C 25.7588975694444 23.9998914930556  23.9998914930556 25.7588975694444  21.7783203125 27.0553385416667  C 19.5567491319444 28.3517795138889  17.1306423611111 29  14.5 29  C 11.8693576388889 29  9.44325086805556 28.3517795138889  7.2216796875 27.0553385416667  C 5.00010850694444 25.7588975694444  3.24110243055556 23.9998914930556  1.94466145833333 21.7783203125  C 0.648220486111111 19.5567491319444  0 17.1306423611111  0 14.5  C 0 11.8693576388889  0.648220486111111 9.44325086805555  1.94466145833333 7.2216796875  C 3.24110243055556 5.00010850694444  5.00010850694444 3.24110243055555  7.2216796875 1.94466145833333  C 9.44325086805556 0.648220486111109  11.8693576388889 0  14.5 0  C 17.1306423611111 0  19.5567491319444 0.648220486111109  21.7783203125 1.94466145833333  C 23.9998914930556 3.24110243055555  25.7588975694444 5.00010850694444  27.0553385416667 7.2216796875  Z " fill-rule="nonzero" fill="#1763bb" stroke="none" transform="matrix(1 0 0 1 1154 205 )" />
  </g>
</svg>