<?xml version="1.0" encoding="utf-8"?>
<svg version="1.1" xmlns:xlink="http://www.w3.org/1999/xlink" width="98px" height="27px" xmlns="http://www.w3.org/2000/svg">
  <defs>
    <mask fill="white" id="clip75">
      <path d="M 13.5 27  C 5.94000000000005 27  0 21.06  0 13.5  C 0 5.94  5.94000000000005 0  13.5 0  L 69.8823529411764 0  L 98 0  L 98 27  L 69.8823529411764 27  L 13.5 27  Z " fill-rule="evenodd" />
    </mask>
  </defs>
  <g transform="matrix(1 0 0 1 -1016 -31 )">
    <path d="M 13.5 27  C 5.94000000000005 27  0 21.06  0 13.5  C 0 5.94  5.94000000000005 0  13.5 0  L 69.8823529411764 0  L 98 0  L 98 27  L 69.8823529411764 27  L 13.5 27  Z " fill-rule="nonzero" fill="#4a90e2" stroke="none" transform="matrix(1 0 0 1 1016 31 )" />
    <path d="M 13.5 27  C 5.94000000000005 27  0 21.06  0 13.5  C 0 5.94  5.94000000000005 0  13.5 0  L 69.8823529411764 0  L 98 0  L 98 27  L 69.8823529411764 27  L 13.5 27  Z " stroke-width="6" stroke="#175daf" fill="none" transform="matrix(1 0 0 1 1016 31 )" mask="url(#clip75)" />
  </g>
</svg>