<?xml version="1.0" encoding="utf-8"?>
<svg version="1.1" xmlns:xlink="http://www.w3.org/1999/xlink" width="45px" height="45px" xmlns="http://www.w3.org/2000/svg">
  <g transform="matrix(1 0 0 1 -927 -1181 )">
    <path d="M 35.068359375 25.693359375  C 35.439453125 25.322265625  35.625 24.8828125  35.625 24.375  L 35.625 20.625  C 35.625 20.1171875  35.439453125 19.677734375  35.068359375 19.306640625  C 34.697265625 18.935546875  34.2578125 18.75  33.75 18.75  L 26.25 18.75  L 26.25 11.25  C 26.25 10.7421875  26.064453125 10.302734375  25.693359375 9.931640625  C 25.322265625 9.560546875  24.8828125 9.375  24.375 9.375  L 20.625 9.375  C 20.1171875 9.375  19.677734375 9.560546875  19.306640625 9.931640625  C 18.935546875 10.302734375  18.75 10.7421875  18.75 11.25  L 18.75 18.75  L 11.25 18.75  C 10.7421875 18.75  10.302734375 18.935546875  9.931640625 19.306640625  C 9.560546875 19.677734375  9.375 20.1171875  9.375 20.625  L 9.375 24.375  C 9.375 24.8828125  9.560546875 25.322265625  9.931640625 25.693359375  C 10.302734375 26.064453125  10.7421875 26.25  11.25 26.25  L 18.75 26.25  L 18.75 33.75  C 18.75 34.2578125  18.935546875 34.697265625  19.306640625 35.068359375  C 19.677734375 35.439453125  20.1171875 35.625  20.625 35.625  L 24.375 35.625  C 24.8828125 35.625  25.322265625 35.439453125  25.693359375 35.068359375  C 26.064453125 34.697265625  26.25 34.2578125  26.25 33.75  L 26.25 26.25  L 33.75 26.25  C 34.2578125 26.25  34.697265625 26.064453125  35.068359375 25.693359375  Z M 41.982421875 11.2060546875  C 43.994140625 14.6533203125  45 18.41796875  45 22.5  C 45 26.58203125  43.994140625 30.3466796875  41.982421875 33.7939453125  C 39.970703125 37.2412109375  37.2412109375 39.970703125  33.7939453125 41.982421875  C 30.3466796875 43.994140625  26.58203125 45  22.5 45  C 18.41796875 45  14.6533203125 43.994140625  11.2060546875 41.982421875  C 7.7587890625 39.970703125  5.029296875 37.2412109375  3.017578125 33.7939453125  C 1.005859375 30.3466796875  0 26.58203125  0 22.5  C 0 18.41796875  1.005859375 14.6533203125  3.017578125 11.2060546875  C 5.029296875 7.7587890625  7.7587890625 5.029296875  11.2060546875 3.017578125  C 14.6533203125 1.005859375  18.41796875 0  22.5 0  C 26.58203125 0  30.3466796875 1.005859375  33.7939453125 3.017578125  C 37.2412109375 5.029296875  39.970703125 7.7587890625  41.982421875 11.2060546875  Z " fill-rule="nonzero" fill="#4d92e3" stroke="none" transform="matrix(1 0 0 1 927 1181 )" />
  </g>
</svg>