<?xml version="1.0" encoding="utf-8"?>
<svg version="1.1" xmlns:xlink="http://www.w3.org/1999/xlink" width="45px" height="45px" xmlns="http://www.w3.org/2000/svg">
  <g transform="matrix(1 0 0 1 -1011 -1181 )">
    <path d="M 33.10546875 30.46875  C 33.4765625 30.09765625  33.662109375 29.6484375  33.662109375 29.12109375  C 33.662109375 28.61328125  33.4765625 28.173828125  33.10546875 27.802734375  L 27.802734375 22.5  L 33.10546875 17.197265625  C 33.4765625 16.826171875  33.662109375 16.38671875  33.662109375 15.87890625  C 33.662109375 15.3515625  33.4765625 14.90234375  33.10546875 14.53125  L 30.46875 11.89453125  C 30.09765625 11.5234375  29.6484375 11.337890625  29.12109375 11.337890625  C 28.61328125 11.337890625  28.173828125 11.5234375  27.802734375 11.89453125  L 22.5 17.197265625  L 17.197265625 11.89453125  C 16.826171875 11.5234375  16.38671875 11.337890625  15.87890625 11.337890625  C 15.3515625 11.337890625  14.90234375 11.5234375  14.53125 11.89453125  L 11.89453125 14.53125  C 11.5234375 14.90234375  11.337890625 15.3515625  11.337890625 15.87890625  C 11.337890625 16.38671875  11.5234375 16.826171875  11.89453125 17.197265625  L 17.197265625 22.5  L 11.89453125 27.802734375  C 11.5234375 28.173828125  11.337890625 28.61328125  11.337890625 29.12109375  C 11.337890625 29.6484375  11.5234375 30.09765625  11.89453125 30.46875  L 14.53125 33.10546875  C 14.90234375 33.4765625  15.3515625 33.662109375  15.87890625 33.662109375  C 16.38671875 33.662109375  16.826171875 33.4765625  17.197265625 33.10546875  L 22.5 27.802734375  L 27.802734375 33.10546875  C 28.173828125 33.4765625  28.61328125 33.662109375  29.12109375 33.662109375  C 29.6484375 33.662109375  30.09765625 33.4765625  30.46875 33.10546875  L 33.10546875 30.46875  Z M 41.982421875 11.2060546875  C 43.994140625 14.6533203125  45 18.41796875  45 22.5  C 45 26.58203125  43.994140625 30.3466796875  41.982421875 33.7939453125  C 39.970703125 37.2412109375  37.2412109375 39.970703125  33.7939453125 41.982421875  C 30.3466796875 43.994140625  26.58203125 45  22.5 45  C 18.41796875 45  14.6533203125 43.994140625  11.2060546875 41.982421875  C 7.7587890625 39.970703125  5.029296875 37.2412109375  3.017578125 33.7939453125  C 1.005859375 30.3466796875  0 26.58203125  0 22.5  C 0 18.41796875  1.005859375 14.6533203125  3.017578125 11.2060546875  C 5.029296875 7.7587890625  7.7587890625 5.029296875  11.2060546875 3.017578125  C 14.6533203125 1.005859375  18.41796875 0  22.5 0  C 26.58203125 0  30.3466796875 1.005859375  33.7939453125 3.017578125  C 37.2412109375 5.029296875  39.970703125 7.7587890625  41.982421875 11.2060546875  Z " fill-rule="nonzero" fill="#c86464" stroke="none" transform="matrix(1 0 0 1 1011 1181 )" />
  </g>
</svg>