<?xml version="1.0" encoding="utf-8"?>
<svg version="1.1" xmlns:xlink="http://www.w3.org/1999/xlink" width="45px" height="45px" xmlns="http://www.w3.org/2000/svg">
  <g transform="matrix(1 0 0 1 -1095 -1181 )">
    <path d="M 37.08984375 19.072265625  C 37.44140625 18.720703125  37.6171875 18.28125  37.6171875 17.75390625  C 37.6171875 17.20703125  37.44140625 16.7578125  37.08984375 16.40625  L 34.423828125 13.76953125  C 34.052734375 13.3984375  33.61328125 13.212890625  33.10546875 13.212890625  C 32.59765625 13.212890625  32.158203125 13.3984375  31.787109375 13.76953125  L 19.833984375 25.693359375  L 13.212890625 19.072265625  C 12.841796875 18.701171875  12.40234375 18.515625  11.89453125 18.515625  C 11.38671875 18.515625  10.947265625 18.701171875  10.576171875 19.072265625  L 7.91015625 21.708984375  C 7.55859375 22.060546875  7.3828125 22.509765625  7.3828125 23.056640625  C 7.3828125 23.583984375  7.55859375 24.0234375  7.91015625 24.375  L 18.515625 34.98046875  C 18.88671875 35.3515625  19.326171875 35.537109375  19.833984375 35.537109375  C 20.361328125 35.537109375  20.810546875 35.3515625  21.181640625 34.98046875  L 37.08984375 19.072265625  Z M 41.982421875 11.2060546875  C 43.994140625 14.6533203125  45 18.41796875  45 22.5  C 45 26.58203125  43.994140625 30.3466796875  41.982421875 33.7939453125  C 39.970703125 37.2412109375  37.2412109375 39.970703125  33.7939453125 41.982421875  C 30.3466796875 43.994140625  26.58203125 45  22.5 45  C 18.41796875 45  14.6533203125 43.994140625  11.2060546875 41.982421875  C 7.7587890625 39.970703125  5.029296875 37.2412109375  3.017578125 33.7939453125  C 1.005859375 30.3466796875  0 26.58203125  0 22.5  C 0 18.41796875  1.005859375 14.6533203125  3.017578125 11.2060546875  C 5.029296875 7.7587890625  7.7587890625 5.029296875  11.2060546875 3.017578125  C 14.6533203125 1.005859375  18.41796875 0  22.5 0  C 26.58203125 0  30.3466796875 1.005859375  33.7939453125 3.017578125  C 37.2412109375 5.029296875  39.970703125 7.7587890625  41.982421875 11.2060546875  Z " fill-rule="nonzero" fill="#64c864" stroke="none" fill-opacity="0.996078431372549" transform="matrix(1 0 0 1 1095 1181 )" />
  </g>
</svg>