<?xml version="1.0" encoding="utf-8"?>
<svg version="1.1" xmlns:xlink="http://www.w3.org/1999/xlink" width="32px" height="30px" xmlns="http://www.w3.org/2000/svg">
  <g transform="matrix(1 0 0 1 -1175 -66 )">
    <path d="M 13.0204081632653 27.43359375  C 13.0068027210884 27.51953125  13.0204081632653 27.625  13.0612244897959 27.75  C 13.0612244897959 27.8125  13.0680272108844 27.96875  13.0816326530612 28.21875  C 13.0952380952381 28.46875  13.0986394557823 28.67578125  13.0918367346939 28.83984375  C 13.0850340136054 29.00390625  13.0646258503401 29.1875  13.030612244898 29.390625  C 12.9965986394558 29.59375  12.9285714285714 29.74609375  12.8265306122449 29.84765625  C 12.7244897959184 29.94921875  12.5850340136054 30  12.4081632653061 30  L 5.87755102040816 30  C 4.25850340136054 30  2.87414965986395 29.33984375  1.72448979591837 28.01953125  C 0.574829931972789 26.69921875  0 25.109375  0 23.25  L 0 6.75  C 0 4.89062499999999  0.574829931972789 3.30078125  1.72448979591837 1.98046875  C 2.87414965986395 0.660156249999996  4.25850340136054 0  5.87755102040816 0  L 12.4081632653061 0  C 12.5850340136054 0  12.7380952380952 0.0742187499999958  12.8673469387755 0.222656250000001  C 12.9965986394558 0.371093749999999  13.0612244897959 0.546874999999999  13.0612244897959 0.750000000000001  C 13.0612244897959 0.812499999999997  13.0680272108844 0.968749999999998  13.0816326530612 1.21875  C 13.0952380952381 1.46875  13.0986394557823 1.67578125  13.0918367346939 1.83984375  C 13.0850340136054 2.00390625  13.0646258503401 2.1875  13.030612244898 2.390625  C 12.9965986394558 2.59375  12.9285714285714 2.74609375  12.8265306122449 2.84765625  C 12.7244897959184 2.94921875  12.5850340136054 3  12.4081632653061 3  L 5.87755102040816 3  C 4.97959183673469 3  4.2108843537415 3.3671875  3.57142857142857 4.1015625  C 2.93197278911565 4.8359375  2.61224489795918 5.71875  3 6.75  L 3 23.25  C 2.61224489795918 24.28125  2.93197278911565 25.1640625  3.57142857142857 25.8984375  C 4.2108843537415 26.6328125  4.97959183673469 27  5.87755102040816 27  L 11.7551020408163 27  L 11.9795918367347 27  L 12.2448979591837 27  C 12.2448979591837 27  12.3231292517007 27.0078125  12.4795918367347 27.0234375  C 12.6360544217687 27.0390625  12.7142857142857 27.0625  12.7142857142857 27.09375  C 12.7142857142857 27.125  12.7687074829932 27.16796875  12.8775510204082 27.22265625  C 12.9863945578231 27.27734375  13.0340136054422 27.34765625  13.0204081632653 27.43359375  Z M 31.6122448979592 13.9453125  C 31.8707482993197 14.2421875  32 14.59375  32 15  C 32 15.40625  31.8707482993197 15.7578125  31.6122448979592 16.0546875  L 20.5102040816327 28.8046875  C 20.2517006802721 29.1015625  19.9455782312925 29.25  19.5918367346939 29.25  C 19.2380952380952 29.25  18.9319727891156 29.1015625  18.6734693877551 28.8046875  C 18.4149659863946 28.5078125  18.2857142857143 28.15625  18.2857142857143 27.75  L 18.2857142857143 21  L 9.14285714285714 21  C 8.7891156462585 21  8.48299319727891 20.8515625  8.22448979591837 20.5546875  C 7.96598639455782 20.2578125  7.83673469387755 19.90625  7.83673469387755 19.5  L 7.83673469387755 10.5  C 7.83673469387755 10.09375  7.96598639455782 9.7421875  8.22448979591837 9.4453125  C 8.48299319727891 9.1484375  8.7891156462585 9  9.14285714285714 9  L 18.2857142857143 9  L 18.2857142857143 2.25  C 18.2857142857143 1.84375  18.4149659863946 1.4921875  18.6734693877551 1.1953125  C 18.9319727891156 0.898437499999999  19.2380952380952 0.750000000000001  19.5918367346939 0.750000000000001  C 19.9455782312925 0.750000000000001  20.2517006802721 0.898437499999999  20.5102040816327 1.1953125  L 31.6122448979592 13.9453125  Z " fill-rule="nonzero" fill="#f8f8f8" stroke="none" transform="matrix(1 0 0 1 1175 66 )" />
  </g>
</svg>