<?xml version="1.0" encoding="utf-8"?>
<svg version="1.1" xmlns:xlink="http://www.w3.org/1999/xlink" width="28px" height="35px" xmlns="http://www.w3.org/2000/svg">
  <g transform="matrix(1 0 0 1 -1035 -66 )">
    <path d="M 27.8140625 25.3043619791667  C 27.9380208333333 26.4512803819444  28 27.6703559027778  28 28.9615885416667  C 28 30.6174045138889  27.5442708333333 32.0377604166667  26.6328125 33.22265625  C 25.7213541666667 34.4075520833333  24.6239583333333 35  23.340625 35  L 4.659375 35  C 3.37604166666667 35  2.27864583333333 34.4075520833333  1.3671875 33.22265625  C 0.455729166666667 32.0377604166667  0 30.6174045138889  0 28.9615885416667  C 0 27.6703559027778  0.0619791666666668 26.4512803819444  0.1859375 25.3043619791667  C 0.309895833333333 24.1574435763889  0.539583333333333 23.0029296875  0.875 21.8408203125  C 1.21041666666667 20.6787109375  1.63697916666667 19.6837022569444  2.1546875 18.8557942708333  C 2.67239583333333 18.0278862847222  3.3578125 17.3518880208333  4.2109375 16.8277994791667  C 5.0640625 16.3037109375  6.04479166666667 16.0416666666667  7.153125 16.0416666666667  C 9.06354166666667 17.9861111111111  11.3458333333333 18.9583333333333  14 18.9583333333333  C 16.6541666666667 18.9583333333333  18.9364583333333 17.9861111111111  20.846875 16.0416666666667  C 21.9552083333333 16.0416666666667  22.9359375 16.3037109375  23.7890625 16.8277994791667  C 24.6421875 17.3518880208333  25.3276041666667 18.0278862847222  25.8453125 18.8557942708333  C 26.3630208333333 19.6837022569444  26.7895833333333 20.6787109375  27.125 21.8408203125  C 27.4604166666667 23.0029296875  27.6901041666667 24.1574435763889  27.8140625 25.3043619791667  Z M 19.9390625 2.5634765625  C 21.5796875 4.2724609375  22.4 6.33463541666667  22.4 8.75  C 22.4 11.1653645833333  21.5796875 13.2275390625  19.9390625 14.9365234375  C 18.2984375 16.6455078125  16.31875 17.5  14 17.5  C 11.68125 17.5  9.7015625 16.6455078125  8.0609375 14.9365234375  C 6.4203125 13.2275390625  5.6 11.1653645833333  5.6 8.75  C 5.6 6.33463541666667  6.4203125 4.2724609375  8.0609375 2.5634765625  C 9.7015625 0.8544921875  11.68125 0  14 0  C 16.31875 0  18.2984375 0.8544921875  19.9390625 2.5634765625  Z " fill-rule="nonzero" fill="#f8f8f8" stroke="none" transform="matrix(1 0 0 1 1035 66 )" />
  </g>
</svg>