<?xml version="1.0" encoding="utf-8"?>
<svg version="1.1" xmlns:xlink="http://www.w3.org/1999/xlink" width="75px" height="75px" xmlns="http://www.w3.org/2000/svg">
  <g transform="matrix(1 0 0 1 -324 -610 )">
    <path d="M 71.1734693877551 14.990234375  C 72.3139255702281 15.478515625  73.1992797118848 16.1783854166667  73.8295318127251 17.08984375  C 75.0300120048019 18.9453125  75.3001200480192 21.044921875  74.639855942377 23.388671875  L 62.2599039615846 67.626953125  C 61.6896758703481 69.7102864583333  60.5417166866747 71.4599609375  58.8160264105642 72.8759765625  C 57.0903361344538 74.2919921875  55.2521008403361 75  53.3013205282113 75  L 11.749699879952 75  C 9.43877551020408 75  7.21038415366147 74.1292317708333  5.06452581032413 72.3876953125  C 2.9186674669868 70.6461588541667  1.42557022809124 68.505859375  0.585234093637455 65.966796875  C -0.135054021608643 63.7858072916667  -0.165066026410564 61.71875  0.495198079231693 59.765625  C 0.495198079231693 59.6354166666667  0.540216086434574 59.1959635416667  0.630252100840336 58.447265625  C 0.720288115246098 57.6985677083333  0.78031212484994 57.0963541666667  0.810324129651861 56.640625  C 0.840336134453782 56.3802083333333  0.7953181272509 56.0302734375  0.675270108043217 55.5908203125  C 0.555222088835534 55.1513671875  0.510204081632653 54.833984375  0.540216086434574 54.638671875  C 0.600240096038415 54.2805989583333  0.720288115246098 53.9388020833333  0.900360144057623 53.61328125  C 1.08043217286915 53.2877604166667  1.32803121248499 52.9052734375  1.64315726290516 52.4658203125  C 1.95828331332533 52.0263671875  2.20588235294118 51.6438802083333  2.3859543817527 51.318359375  C 3.07623049219688 50.0813802083333  3.7515006002401 48.5921223958333  4.41176470588235 46.8505859375  C 5.07202881152461 45.1090494791667  5.52220888355342 43.6197916666667  5.76230492196879 42.3828125  C 5.85234093637455 42.0572916666667  5.85984393757503 41.5690104166667  5.78481392557023 40.91796875  C 5.70978391356543 40.2669270833333  5.70228091236495 39.8111979166667  5.76230492196879 39.55078125  C 5.85234093637455 39.1927083333333  6.10744297719088 38.7369791666667  6.52761104441777 38.18359375  C 6.94777911164466 37.6302083333333  7.20288115246098 37.255859375  7.29291716686675 37.060546875  C 7.92316926770708 35.888671875  8.55342136854742 34.3912760416667  9.18367346938775 32.568359375  C 9.81392557022809 30.7454427083333  10.1890756302521 29.2805989583333  10.3091236494598 28.173828125  C 10.3391356542617 27.880859375  10.3016206482593 27.3600260416667  10.1965786314526 26.611328125  C 10.0915366146459 25.8626302083333  10.0990396158463 25.4069010416667  10.219087635054 25.244140625  C 10.3391356542617 24.8209635416667  10.6692677070828 24.3245442708333  11.2094837935174 23.7548828125  C 11.749699879952 23.1852213541667  12.0798319327731 22.8190104166667  12.1998799519808 22.65625  C 12.7701080432173 21.8098958333333  13.4078631452581 20.4345703125  14.1131452581032 18.5302734375  C 14.8184273709484 16.6259765625  15.2310924369748 15.0553385416667  15.3511404561825 13.818359375  C 15.3811524609844 13.5579427083333  15.3361344537815 13.1429036458333  15.2160864345738 12.5732421875  C 15.0960384153661 12.0035807291667  15.0660264105642 11.572265625  15.1260504201681 11.279296875  C 15.1860744297719 11.0188802083333  15.3211284513806 10.7259114583333  15.531212484994 10.400390625  C 15.7412965186074 10.0748697916667  16.0114045618247 9.70052083333333  16.3415366146459 9.27734375  C 16.671668667467 8.85416666666666  16.9267707082833 8.51236979166666  17.1068427370948 8.251953125  C 17.3469387755102 7.861328125  17.5945378151261 7.36490885416667  17.8496398559424 6.7626953125  C 18.1047418967587 6.16048177083332  18.3298319327731 5.5908203125  18.5249099639856 5.0537109375  C 18.7199879951981 4.5166015625  18.9600840336134 3.9306640625  19.2451980792317 3.2958984375  C 19.5303121248499 2.6611328125  19.8229291716687 2.14029947916666  20.1230492196879 1.7333984375  C 20.4231692677071 1.32649739583332  20.8208283313325 0.94401041666666  21.3160264105642 0.5859375  C 21.8112244897959 0.227864583333323  22.3514405762305 0.0406901041666657  22.9366746698679 0.0244140625000028  C 23.5219087635054 0.00813802083332316  24.234693877551 0.0976562500000028  25.0750300120048 0.29296875  L 25.0300120048019 0.439453125  C 26.1704681872749 0.146484375  26.9357743097239 0  27.3259303721489 0  L 61.5846338535414 0  C 63.8055222088836 0  65.516206482593 0.911458333333326  66.7166866746699 2.734375  C 67.9171668667467 4.55729166666666  68.187274909964 6.67317708333332  67.5270108043217 9.08203125  L 55.1920768307323 53.3203125  C 54.1116446578631 57.1940104166667  53.0387154861945 59.6923828125  51.9732893157263 60.8154296875  C 50.9078631452581 61.9384765625  48.9795918367347 62.5  46.1884753901561 62  L 7.06782713085234 62  C 6.25750300120048 62.5  5.68727490996399 62.744140625  5.35714285714286 63.232421875  C 5.02701080432173 63.7532552083333  5.01200480192077 64.453125  5.31212484993998 65.33203125  C 6.03241296518607 67.6106770833333  8.19327731092437 68.75  11.7947178871549 68  L 53.3463385354142 68  C 54.2166866746699 68.75  55.0570228091237 68.4977213541667  55.8673469387755 67.9931640625  C 56.6776710684274 67.4886067708333  57.202881152461 66.8131510416667  57.4429771908763 65.966796875  L 70.9483793517407 17.7734375  C 71.1584633853542 17.0572916666667  71.2334933973589 16.1295572916667  71.1734693877551 14.990234375  Z M 26.87575030012 14.0625  L 25.9303721488595 17.1875  C 25.8103241296519 17.6106770833333  25.8403361344538 17.9768880208333  26.0204081632653 18.2861328125  C 26.2004801920768 18.5953776041667  26.500600240096 18.75  26.9207683073229 19  L 54.2917166866747 19  C 54.6818727490996 18.75  55.0645258103241 18.5953776041667  55.4396758703481 18.2861328125  C 55.8148259303722 17.9768880208333  56.062424969988 17.6106770833333  56.1824729891957 17.1875  L 57.1278511404562 14.0625  C 57.2478991596639 13.6393229166667  57.2178871548619 13.2731119791667  57.0378151260504 12.9638671875  C 56.8577430972389 12.6546223958333  56.5576230492197 12.5  56.1374549819928 13  L 28.7665066026411 13  C 28.3763505402161 12.5  27.9936974789916 12.6546223958333  27.6185474189676 12.9638671875  C 27.2433973589436 13.2731119791667  26.9957983193277 13.6393229166667  26.87575030012 14.0625  Z M 23.1392557022809 26.5625  L 22.1938775510204 29.6875  C 22.0738295318127 30.1106770833333  22.1038415366146 30.4768880208333  22.2839135654262 30.7861328125  C 22.4639855942377 31.0953776041667  22.7641056422569 31.25  23.1842737094838 32  L 50.5552220888355 32  C 50.9453781512605 31.25  51.328031212485 31.0953776041667  51.703181272509 30.7861328125  C 52.078331332533 30.4768880208333  52.3259303721489 30.1106770833333  52.4459783913565 29.6875  L 53.391356542617 26.5625  C 53.5114045618247 26.1393229166667  53.4813925570228 25.7731119791667  53.3013205282113 25.4638671875  C 53.1212484993998 25.1546223958333  52.8211284513806 25  52.4009603841537 25  L 25.0300120048019 25  C 24.639855942377 25  24.2572028811525 25.1546223958333  23.8820528211285 25.4638671875  C 23.5069027611044 25.7731119791667  23.2593037214886 26.1393229166667  23.1392557022809 26.5625  Z " fill-rule="nonzero" fill="#4b90e2" stroke="none" transform="matrix(1 0 0 1 324 610 )" />
  </g>
</svg>