<?xml version="1.0" encoding="utf-8"?>
<svg version="1.1" xmlns:xlink="http://www.w3.org/1999/xlink" width="75px" height="75px" xmlns="http://www.w3.org/2000/svg">
  <g transform="matrix(1 0 0 1 -324 -428 )">
    <path d="M 0 16.0714285714286  L 37.5 0  L 75 16.0714285714286  L 75 21.4285714285714  L 70 21.4285714285714  C 70 22.1540178571429  69.7330729166667 22.7818080357143  69.19921875 23.3119419642857  C 68.6653645833333 23.8420758928571  68.0338541666667 24.1071428571429  67.3046875 25  L 7.6953125 25  C 6.96614583333333 24.1071428571429  6.33463541666667 23.8420758928571  5.80078125 23.3119419642857  C 5.26692708333333 22.7818080357143  5 22.1540178571429  5 21.4285714285714  L 0 21.4285714285714  L 0 16.0714285714286  Z M 10 58.9285714285714  L 10 27  L 20 27  L 20 58.9285714285714  L 25 58.9285714285714  L 25 27  L 35 27  L 35 58.9285714285714  L 40 58.9285714285714  L 40 27  L 50 27  L 50 58.9285714285714  L 55 58.9285714285714  L 55 27  L 65 27  L 65 58.9285714285714  L 67.3046875 58.9285714285714  C 68.0338541666667 58.9285714285714  68.6653645833333 59.1936383928571  69.19921875 59.7237723214286  C 69.7330729166667 60.25390625  70 60.8816964285714  70 61.6071428571429  L 70 64  L 5 64  L 5 61.6071428571429  C 5 60.8816964285714  5.26692708333333 60.25390625  5.80078125 59.7237723214286  C 6.33463541666667 59.1936383928571  6.96614583333333 58.9285714285714  7.6953125 58.9285714285714  L 10 58.9285714285714  Z M 2.6953125 67  L 72.3046875 67  C 73.0338541666667 66.9642857142857  73.6653645833333 67.2293526785714  74.19921875 67.7594866071429  C 74.7330729166667 68.2896205357143  75 68.9174107142857  75 69.6428571428571  L 75 75  L 0 75  L 0 69.6428571428571  C 0 68.9174107142857  0.266927083333333 68.2896205357143  0.80078125 67.7594866071429  C 1.33463541666667 67.2293526785714  1.96614583333333 66.9642857142857  2.6953125 67  Z " fill-rule="nonzero" fill="#4b90e2" stroke="none" transform="matrix(1 0 0 1 324 428 )" />
  </g>
</svg>