<?xml version="1.0" encoding="utf-8"?>
<svg version="1.1" xmlns:xlink="http://www.w3.org/1999/xlink" width="75px" height="75px" xmlns="http://www.w3.org/2000/svg">
  <g transform="matrix(1 0 0 1 -324 -763 )">
    <path d="M 41.4341517857143 9.58126330731015  C 37.7232142857143 7.735982966643  33.7332589285714 6.81334279630944  29.4642857142857 6.81334279630944  C 25.1953125 6.81334279630944  21.2053571428571 7.735982966643  17.4944196428571 9.58126330731015  C 13.7834821428571 11.4265436479773  10.8328683035714 13.9283179559971  8.642578125 17.0865862313698  C 6.45228794642857 20.2448545067424  5.35714285714286 23.6337828246984  5.35714285714286 27.2533711852378  C 5.35714285714286 30.1632363378282  6.09654017857143 32.9666430092264  7.57533482142857 35.6635911994322  C 9.05412946428572 38.360539389638  11.1328125 40.7026259758694  13.8113839285714 42.6898509581263  L 17.87109375 45.6706884315117  L 16.40625 50.1419446415898  C 17.3549107142857 49.4322214336409  18.2198660714286 48.7402413058907  19.0011160714286 48.0660042583392  L 20.8426339285714 46.4158977998581  L 23.0608258928571 46.9481902058197  C 25.2371651785714 47.444996451384  27.3716517857143 47.6933995741661  29.4642857142857 47.6933995741661  C 33.7332589285714 47.6933995741661  37.7232142857143 46.7707594038325  41.4341517857143 44.9254790631654  C 45.1450892857143 43.0801987224982  48.095703125 40.5784244144783  50.2859933035714 37.4201561391057  C 52.4762834821429 34.2618878637331  53.5714285714286 30.8729595457771  53.5714285714286 27.2533711852378  C 53.5714285714286 23.6337828246984  52.4762834821429 20.2448545067424  50.2859933035714 17.0865862313698  C 48.095703125 13.9283179559971  45.1450892857143 11.4265436479773  41.4341517857143 9.58126330731015  Z M 14.6693638392857 3.64620298083748  C 19.2034040178571 1.21540099361249  24.1350446428571 0  29.4642857142857 0  C 34.7935267857143 0  39.7251674107143 1.21540099361249  44.2592075892857 3.64620298083748  C 48.7932477678571 6.07700496806245  52.3716517857143 9.38608942512419  54.9944196428571 13.5734563520227  C 57.6171875 17.7608232789212  58.9285714285714 22.3207948899929  58.9285714285714 27.2533711852378  C 58.9285714285714 32.1859474804826  57.6171875 36.7459190915543  54.9944196428571 40.9332860184528  C 52.3716517857143 45.1206529453513  48.7932477678571 48.4297374024131  44.2592075892857 50.860539389638  C 39.7251674107143 53.291341376863  34.7935267857143 54.5067423704755  29.4642857142857 54.5067423704755  C 27.0647321428571 54.5067423704755  24.609375 54.2228530872959  22.0982142857143 53.6550745209368  C 18.6383928571429 56.777856635912  14.7600446428571 59.0489709013485  10.4631696428571 60.4684173172463  C 9.45870535714286 60.7877927608233  8.25892857142857 61.0716820440028  6.86383928571429 61.3200851667849  L 6.73828125 61.3200851667849  C 6.43136160714286 61.3200851667849  6.14536830357143 61.1781405251952  5.88030133928571 60.8942512420156  C 5.615234375 60.6103619588361  5.45479910714286 60.2377572746629  5.39899553571429 59.7764371894961  C 5.37109375 59.6699787083038  5.35714285714286 59.5546486870121  5.35714285714286 59.430447125621  C 5.35714285714286 59.30624556423  5.36411830357143 59.1909155429383  5.37806919642857 59.0844570617459  C 5.39202008928571 58.9779985805536  5.419921875 58.8715400993613  5.46177455357143 58.7650816181689  L 5.56640625 58.4989354151881  C 5.56640625 58.4989354151881  5.615234375 58.4013484740951  5.712890625 58.2061745919092  C 5.810546875 58.0110007097232  5.86635044642857 57.9222853087296  5.88030133928571 57.9400283889283  C 5.89425223214286 57.957771469127  5.95703125 57.8690560681334  6.06863839285714 57.6738821859475  C 6.18024553571429 57.4787083037615  6.23604910714286 57.3988644428673  6.23604910714286 57.4343506032647  C 6.37555803571429 57.2214336408801  6.69642857142857 56.777856635912  7.19866071428571 56.1036195883605  C 7.70089285714286 55.4293825408091  8.06361607142857 54.9059616749468  8.28683035714286 54.5333569907736  C 8.51004464285714 54.1607523066004  8.82393973214286 53.6462029808375  9.228515625 52.9897090134847  C 9.63309151785714 52.333215046132  9.98186383928571 51.6501064584812  10.2748325892857 50.9403832505323  C 10.5678013392857 50.2306600425834  10.8537946428571 49.4499645138396  11.1328125 48.5982966643009  C 7.67299107142857 46.0432931156849  4.95256696428571 42.902767920511  2.97154017857143 39.1767210787793  C 0.990513392857143 35.4506742370476  0 31.4762242725337  0 27.2533711852378  C 0 22.3207948899929  1.31138392857143 17.7608232789212  3.93415178571429 13.5734563520227  C 6.55691964285714 9.38608942512419  10.1353236607143 6.07700496806245  14.6693638392857 3.64620298083748  Z M 72.0284598214286 52.8300212916962  C 70.0474330357143 56.5383250532292  67.3270089285714 59.6699787083038  63.8671875 62.2249822569198  C 64.1462053571428 63.0766501064585  64.4321986607143 63.8573456352023  64.7251674107143 64.5670688431512  C 65.0181361607143 65.2767920511001  65.3669084821429 65.9599006387509  65.771484375 66.6163946061036  C 66.1760602678571 67.2728885734563  66.4899553571429 67.7874378992193  66.7131696428571 68.1600425833925  C 66.9363839285714 68.5326472675657  67.2991071428572 69.056068133428  67.8013392857143 69.7303051809794  C 68.3035714285714 70.4045422285309  68.6244419642857 70.8481192334989  68.7639508928571 71.0610361958836  C 68.7918526785714 71.0965223562811  68.84765625 71.1763662171753  68.9313616071429 71.3005677785664  C 69.0150669642857 71.4247693399574  69.0778459821429 71.513484740951  69.1196986607143 71.5667139815472  C 69.1615513392857 71.6199432221434  69.2173549107143 71.708658623137  69.287109375 71.832860184528  C 69.3568638392857 71.9570617459191  69.4056919642857 72.0546486870121  69.43359375 72.125621007807  L 69.5382254464286 72.3917672107878  C 69.5382254464286 72.3917672107878  69.5661272321429 72.4982256919801  69.6219308035714 72.7111426543648  C 69.677734375 72.9240596167495  69.6847098214286 73.0393896380412  69.6428571428571 73.0571327182399  C 69.6010044642857 73.0748757984386  69.5870535714286 73.1902058197303  69.6010044642857 73.403122782115  C 69.5172991071429 73.8999290276792  69.3359375 74.2902767920511  69.0569196428571 74.5741660752307  C 68.7779017857143 74.8580553584102  68.4709821428571 74.9822569198013  68.1361607142857 74.9467707594038  C 66.7410714285714 74.6983676366217  65.5412946428572 74.4144783534422  64.5368303571429 74.0951029098651  C 60.2399553571429 72.6756564939674  56.3616071428571 70.4045422285309  52.9017857142857 67.2817601135557  C 50.390625 67.8495386799148  47.9352678571429 68.1334279630944  45.5357142857143 68.1334279630944  C 37.9743303571429 68.1334279630944  31.3895089285714 65.791341376863  25.78125 61.1071682044003  C 27.3995535714286 61.2491128459901  28.6272321428571 61.3200851667849  29.4642857142857 61.3200851667849  C 33.9564732142857 61.3200851667849  38.2672991071429 60.5216465578424  42.3967633928571 58.9247693399574  C 46.5262276785714 57.3278921220724  50.2092633928571 55.0390347764372  53.4458705357143 52.0581973030518  C 56.93359375 48.7934705464869  59.6121651785714 45.0319375443577  61.4815848214286 40.7735982966643  C 63.3510044642857 36.5152590489709  64.2857142857143 32.0085166784954  64.2857142857143 27.2533711852378  C 64.2857142857143 24.5209368346345  63.96484375 21.8239886444287  63.3231026785714 19.1625266146203  C 66.9224330357143 21.6820440028389  69.7684151785714 24.8403122782115  71.8610491071429 28.6373314407381  C 73.9536830357143 32.4343506032647  75 36.5152590489709  75 40.8800567778566  C 75 45.13839602555  74.0094866071429 49.1217175301632  72.0284598214286 52.8300212916962  Z " fill-rule="nonzero" fill="#4b90e2" stroke="none" transform="matrix(1 0 0 1 324 763 )" />
  </g>
</svg>